<svg width="40" height="36" viewBox="0 0 40 36" fill="none" xmlns="http://www.w3.org/2000/svg">
<rect width="36" height="36" rx="4" fill="#0F9B7F"/>
<path d="M18 18.0007C19.5471 18.0007 21.0308 17.3861 22.1248 16.2921C23.2188 15.1981 23.8333 13.7144 23.8333 12.1673C23.8333 10.6202 23.2188 9.13649 22.1248 8.04253C21.0308 6.94857 19.5471 6.33398 18 6.33398C16.4529 6.33398 14.9692 6.94857 13.8752 8.04253C12.7812 9.13649 12.1667 10.6202 12.1667 12.1673C12.1667 13.7144 12.7812 15.1981 13.8752 16.2921C14.9692 17.3861 16.4529 18.0007 18 18.0007Z" fill="#171717"/>
<path opacity="0.5" d="M18 20.916C12.155 20.916 7.395 24.836 7.395 29.666C7.395 29.9927 7.65167 30.2493 7.97833 30.2493H28.0217C28.3483 30.2493 28.605 29.9927 28.605 29.666C28.605 24.836 23.845 20.916 18 20.916Z" fill="#171717"/>
<path d="M30.565 28.1293L29.6783 27.2427C30.145 26.5427 30.4133 25.7027 30.4133 24.8043C30.4133 23.9229 30.152 23.0612 29.6623 22.3283C29.1725 21.5954 28.4765 21.0242 27.6622 20.6869C26.8478 20.3496 25.9517 20.2613 25.0872 20.4333C24.2227 20.6053 23.4286 21.0297 22.8053 21.653C22.1821 22.2763 21.7576 23.0704 21.5856 23.9349C21.4137 24.7994 21.5019 25.6955 21.8392 26.5098C22.1766 27.3242 22.7478 28.0202 23.4807 28.5099C24.2136 28.9996 25.0752 29.261 25.9567 29.261C26.855 29.261 27.695 28.9927 28.395 28.526L29.2817 29.4127C29.4567 29.5877 29.69 29.681 29.9233 29.681C30.1567 29.681 30.39 29.5877 30.565 29.4127C30.9267 29.051 30.9267 28.4793 30.565 28.1293Z" fill="#171717"/>
<path d="M36 11L36 25L39.7165 18.4961C39.8922 18.1887 39.8922 17.8113 39.7165 17.5039L36 11Z" fill="#0F9B7F"/>
</svg>
